<?xml version="1.0" encoding="UTF-8"?>
<svg id="Layer_2" data-name="Layer 2" xmlns="http://www.w3.org/2000/svg" xmlns:xlink="http://www.w3.org/1999/xlink" viewBox="0 0 936.13 216.68">
  <defs>
    <style>
      .cls-1 {
        fill: url(#linear-gradient-2);
      }

      .cls-2 {
        fill: url(#linear-gradient-6);
      }

      .cls-3 {
        fill: url(#linear-gradient-10);
      }

      .cls-4 {
        fill: url(#linear-gradient-5);
      }

      .cls-5 {
        fill: url(#linear-gradient-7);
      }

      .cls-6 {
        fill: url(#linear-gradient-9);
      }

      .cls-7 {
        fill: url(#linear-gradient-3);
      }

      .cls-8 {
        fill: url(#linear-gradient);
      }

      .cls-9 {
        fill: url(#linear-gradient-4);
      }

      .cls-10 {
        fill: url(#linear-gradient-8);
      }
    </style>
    <linearGradient id="linear-gradient" x1="1.61" y1="109.08" x2="246" y2="109.08" gradientUnits="userSpaceOnUse">
      <stop offset="0" stop-color="#007092"/>
      <stop offset="1" stop-color="#5bba47"/>
    </linearGradient>
    <linearGradient id="linear-gradient-2" x1="-1.39" y1="108.34" x2="249" y2="108.34" gradientUnits="userSpaceOnUse">
      <stop offset="0" stop-color="#00aeef"/>
      <stop offset="1" stop-color="#00ac4e" stop-opacity=".6"/>
    </linearGradient>
    <linearGradient id="linear-gradient-3" x1="283.11" y1="109.08" x2="387.01" y2="109.08" xlink:href="#linear-gradient"/>
    <linearGradient id="linear-gradient-4" x1="382.85" y1="109.08" x2="473.05" y2="109.08" xlink:href="#linear-gradient"/>
    <linearGradient id="linear-gradient-5" x1="471.96" y1="115.48" x2="505.08" y2="115.48" xlink:href="#linear-gradient"/>
    <linearGradient id="linear-gradient-6" x1="517.72" y1="109.08" x2="596.43" y2="109.08" xlink:href="#linear-gradient"/>
    <linearGradient id="linear-gradient-7" x1="596.1" y1="109.08" x2="675.91" y2="109.08" xlink:href="#linear-gradient"/>
    <linearGradient id="linear-gradient-8" x1="679.63" y1="109.08" x2="762.39" y2="109.08" xlink:href="#linear-gradient"/>
    <linearGradient id="linear-gradient-9" x1="754.84" y1="109.08" x2="852.93" y2="109.08" xlink:href="#linear-gradient"/>
    <linearGradient id="linear-gradient-10" x1="857.96" y1="109.08" x2="936.13" y2="109.08" xlink:href="#linear-gradient"/>
  </defs>
  <g id="Layer_2-2" data-name="Layer 2">
    <g>
      <path class="cls-8" d="m241.02,47.58c-14.15-9.98-49.22-32.07-95.37-42.46-14.28-3.22-29.12-3.1-43.39.2C78.51,10.82,39.26,22.91,6.35,47.44c-4.11,3.07-5.78,8.45-4.08,13.29,4.82,13.73,16.99,43.49,41.37,77.37,22.84-19.74,74.67-55.39,158.25-63.65,0,0-78.02,9.31-132.1,95.77,13.32,14.52,28.96,29.12,47.26,42.96,3.75,2.83,8.89,2.92,12.75.25,21.22-14.71,88.18-66.62,115.64-152.8,1.54-4.84-.28-10.12-4.44-13.05Z"/>
      <path class="cls-1" d="m69.8,170.23c4.66,4.83,9.43,9.56,14.35,14.12,4.89,4.58,9.9,9.05,15.04,13.34,5.14,4.3,10.38,8.46,15.75,12.46l2.02,1.49c.33.24.69.52,1,.72.31.22.62.41.95.58,1.31.7,2.79,1.09,4.26,1.13,1.48.04,2.96-.26,4.29-.89.34-.14.65-.34.97-.51.31-.21.6-.39.95-.65l2.02-1.47c10.75-7.91,20.97-16.56,30.63-25.77,9.65-9.22,18.84-18.92,27.33-29.2,8.52-10.25,16.34-21.06,23.51-32.26,1.74-2.84,3.54-5.63,5.18-8.53.83-1.44,1.69-2.87,2.5-4.31l2.39-4.37c.81-1.45,1.57-2.93,2.32-4.41l2.27-4.44,2.14-4.5c.72-1.5,1.43-3,2.08-4.52l2-4.56c.67-1.52,1.26-3.07,1.9-4.6.61-1.54,1.28-3.06,1.85-4.62l1.73-4.67c.6-1.55,1.14-3.12,1.65-4.7l1.58-4.72.2-.59.12-.46c.1-.3.12-.61.19-.92.07-.62.12-1.25.06-1.87-.09-1.25-.46-2.48-1.07-3.58-.61-1.1-1.46-2.07-2.47-2.82-.11-.09-.27-.2-.45-.32l-.51-.35-1.02-.71c-.68-.47-1.36-.94-2.06-1.4-1.38-.92-2.76-1.84-4.16-2.73-1.39-.91-2.8-1.78-4.21-2.65-5.65-3.48-11.44-6.75-17.32-9.84-5.89-3.06-11.88-5.95-17.95-8.64-6.1-2.62-12.25-5.15-18.52-7.32-6.24-2.26-12.61-4.16-19-5.93-3.2-.85-6.44-1.61-9.65-2.39-3.18-.71-6.39-1.26-9.63-1.64-6.47-.76-13.02-.85-19.52-.27-3.25.29-6.49.74-9.69,1.37-1.6.32-3.19.66-4.82,1.05-1.62.37-3.24.76-4.85,1.17-12.91,3.23-25.64,7.26-38.04,12.1-6.19,2.45-12.29,5.12-18.29,8-1.5.73-2.97,1.5-4.46,2.24-1.49.74-2.97,1.5-4.42,2.32l-4.38,2.39-4.3,2.52-2.15,1.27-2.1,1.34-4.2,2.69-4.1,2.84-2.05,1.42c-.37.24-.58.45-.89.68-.25.25-.54.47-.77.74-2,2.06-3,5.05-2.7,7.93.06.72.24,1.43.45,2.12l.81,2.35c.56,1.57,1.12,3.14,1.7,4.7,9.3,25.06,22.34,48.69,37.4,70.9-3.99-5.39-7.96-10.82-11.65-16.44-3.7-5.61-7.26-11.33-10.6-17.17-6.71-11.66-12.77-23.73-17.89-36.23-.65-1.56-1.25-3.14-1.86-4.72l-.89-2.39c-.3-.9-.55-1.83-.66-2.78-.49-3.79.74-7.78,3.35-10.63.31-.37.68-.68,1.02-1.02.36-.29.76-.65,1.09-.88l2.05-1.5,4.11-3,4.21-2.84,2.11-1.42,2.16-1.34,4.32-2.68,4.41-2.52c1.46-.86,2.95-1.66,4.46-2.44,1.5-.79,2.99-1.6,4.5-2.36,6.05-3.04,12.21-5.87,18.46-8.46,6.26-2.56,12.6-4.94,19.02-7.1,6.43-2.12,12.92-4.04,19.47-5.75,1.63-.44,3.28-.85,4.92-1.24,1.63-.41,3.32-.79,5-1.15,3.38-.7,6.79-1.21,10.22-1.55,6.86-.68,13.8-.67,20.68.07,3.44.36,6.86.91,10.23,1.66,3.32.79,6.61,1.56,9.9,2.42,6.55,1.79,13.06,3.71,19.45,6,6.42,2.2,12.71,4.75,18.95,7.41,6.21,2.72,12.34,5.64,18.36,8.76,5.99,3.17,11.89,6.53,17.66,10.11,1.45.89,2.88,1.79,4.3,2.72,1.43.91,2.84,1.86,4.25,2.81.71.47,1.41.95,2.1,1.44l1.05.73.52.36c.17.11.35.24.57.42,1.68,1.25,3.09,2.86,4.1,4.7,1.01,1.83,1.63,3.89,1.77,5.99.09,1.05.02,2.11-.11,3.15-.1.52-.17,1.04-.33,1.54l-.21.75-.2.6-1.63,4.82c-.53,1.61-1.09,3.21-1.7,4.8l-1.79,4.77c-.59,1.59-1.28,3.14-1.91,4.72-.66,1.56-1.27,3.15-1.97,4.69l-2.1,4.64c-11.37,24.64-26.34,47.53-44,68.01-17.62,20.51-37.71,38.86-59.83,54.34l-2.09,1.42c-.33.23-.75.49-1.15.73-.42.22-.83.45-1.27.62-1.74.74-3.65,1.07-5.52.95-1.87-.11-3.72-.66-5.33-1.6-.41-.23-.79-.49-1.17-.77-.38-.27-.67-.53-1.02-.79l-1.98-1.57c-5.27-4.2-10.4-8.56-15.41-13.05-5.01-4.49-9.89-9.12-14.63-13.89-4.72-4.78-9.28-9.72-13.72-14.76Z"/>
      <g>
        <path class="cls-7" d="m283.11,149.58l17.19-81.01h27.37l7.23,37,23.65-37h28.46l-17.19,81.01h-21.02l10.18-47.84-19.16,30.11h-19.27l-6.24-30.11-10.18,47.84h-21.02Z"/>
        <path class="cls-9" d="m382.85,149.58l17.19-81.01h21.02l-7.34,34.7,32.08-34.7h27.26l-40.4,41.49,21.68,39.52h-23.54l-19.16-36.56-7.77,36.56h-21.02Z"/>
        <path class="cls-4" d="m471.96,123.53l3.39-16.09h29.73l-3.39,16.09h-29.72Z"/>
        <path class="cls-2" d="m517.72,149.58l17.19-81.01h32.95c6.49,0,11.86,1.19,16.09,3.56,4.23,2.37,7.37,5.46,9.42,9.25,2.04,3.8,3.07,7.85,3.07,12.15,0,3.58-.71,7.13-2.13,10.67-1.42,3.54-3.54,6.77-6.35,9.69-2.81,2.92-6.26,5.24-10.34,6.95-4.09,1.72-8.8,2.57-14.12,2.57h-19.16l-5.58,26.16h-21.02Zm47.73-62.73h-13.36l-3.94,18.39h16.2c3.5,0,6.2-1.06,8.1-3.18,1.9-2.12,2.85-4.38,2.85-6.79,0-2.19-.79-4.14-2.35-5.86-1.57-1.71-4.07-2.57-7.5-2.57Z"/>
        <path class="cls-5" d="m596.1,149.58l17.19-81.01h33.28c6.64,0,12.11,1.15,16.42,3.45s7.54,5.29,9.69,8.98c2.15,3.69,3.23,7.57,3.23,11.66,0,3.58-.79,7.08-2.35,10.51-1.57,3.43-3.87,6.5-6.9,9.2-3.03,2.7-6.77,4.75-11.22,6.13l9.41,31.09h-21.46l-8.43-29.34h-11.61l-6.24,29.34h-21.02Zm49.59-62.95h-15.22l-3.61,16.86h17.52c3.5,0,6.17-.95,7.99-2.85,1.82-1.9,2.74-3.94,2.74-6.13,0-2.04-.77-3.87-2.3-5.47-1.53-1.61-3.9-2.41-7.12-2.41Z"/>
        <path class="cls-10" d="m716.85,150.68c-6.35,0-11.86-1-16.53-3.01-4.67-2.01-8.54-4.74-11.6-8.21-3.07-3.47-5.35-7.41-6.84-11.82-1.5-4.42-2.25-9.03-2.25-13.85,0-5.54.99-11.06,2.96-16.53,1.97-5.47,4.89-10.45,8.76-14.94s8.63-8.08,14.29-10.78c5.65-2.7,12.17-4.05,19.54-4.05,6.35,0,11.86,1,16.53,3.01s8.54,4.74,11.61,8.21c3.07,3.47,5.35,7.41,6.84,11.82,1.5,4.42,2.24,9.03,2.24,13.85,0,5.55-.98,11.06-2.96,16.53-1.97,5.47-4.89,10.45-8.76,14.94-3.87,4.49-8.63,8.08-14.29,10.78-5.66,2.7-12.17,4.05-19.54,4.05Zm.88-18.72c3.72,0,7.04-.8,9.96-2.41,2.92-1.61,5.36-3.74,7.34-6.4,1.97-2.66,3.48-5.6,4.54-8.81,1.06-3.21,1.59-6.39,1.59-9.52s-.6-6.35-1.81-9.2-3.03-5.13-5.47-6.84c-2.45-1.71-5.6-2.57-9.47-2.57s-7.04.8-9.96,2.41c-2.92,1.61-5.36,3.74-7.34,6.4-1.97,2.66-3.49,5.58-4.54,8.76-1.06,3.17-1.59,6.37-1.59,9.58s.6,6.33,1.81,9.14,3.05,5.09,5.53,6.84c2.48,1.75,5.62,2.63,9.41,2.63Z"/>
        <path class="cls-6" d="m754.84,149.58l34.7-42.69-14.78-38.32h23.86l8.43,24.74,18.94-24.74h26.93l-35.03,42.69,15.22,38.32h-23.87l-8.54-24.85-18.94,24.85h-26.93Z"/>
        <path class="cls-3" d="m869.35,149.58l5.69-27.15-17.08-53.86h21.68l9.2,32.51,22.88-32.51h24.41l-40.07,53.97-5.69,27.04h-21.02Z"/>
      </g>
    </g>
  </g>
</svg>